<mxfile host="app.diagrams.net" agent="Mozilla/5.0 (Windows NT 10.0; Win64; x64) AppleWebKit/537.36 (KHTML, like Gecko) Chrome/141.0.0.0 Safari/537.36" version="28.2.7">
  <diagram name="Page-1" id="gIT_AoULOeZtq3MnKvIx">
    <mxGraphModel dx="2276" dy="743" grid="1" gridSize="10" guides="1" tooltips="1" connect="1" arrows="1" fold="1" page="1" pageScale="1" pageWidth="850" pageHeight="1100" math="0" shadow="0">
      <root>
        <mxCell id="0" />
        <mxCell id="1" parent="0" />
        <mxCell id="sYgXYXVd1xDT1tKqQFDk-7" value="" style="edgeStyle=orthogonalEdgeStyle;rounded=0;orthogonalLoop=1;jettySize=auto;html=1;" edge="1" parent="1" source="sYgXYXVd1xDT1tKqQFDk-1">
          <mxGeometry relative="1" as="geometry">
            <mxPoint x="-60" y="50" as="targetPoint" />
          </mxGeometry>
        </mxCell>
        <mxCell id="sYgXYXVd1xDT1tKqQFDk-32" value="" style="edgeStyle=orthogonalEdgeStyle;rounded=0;orthogonalLoop=1;jettySize=auto;html=1;entryX=-0.025;entryY=0.85;entryDx=0;entryDy=0;entryPerimeter=0;" edge="1" parent="1" source="sYgXYXVd1xDT1tKqQFDk-1" target="sYgXYXVd1xDT1tKqQFDk-29">
          <mxGeometry relative="1" as="geometry">
            <Array as="points">
              <mxPoint x="-200" y="108" />
            </Array>
          </mxGeometry>
        </mxCell>
        <mxCell id="sYgXYXVd1xDT1tKqQFDk-1" value="Content onboarding" style="rounded=1;whiteSpace=wrap;html=1;" vertex="1" parent="1">
          <mxGeometry x="-290" y="20" width="120" height="60" as="geometry" />
        </mxCell>
        <mxCell id="sYgXYXVd1xDT1tKqQFDk-27" value="" style="edgeStyle=orthogonalEdgeStyle;rounded=0;orthogonalLoop=1;jettySize=auto;html=1;" edge="1" parent="1" source="sYgXYXVd1xDT1tKqQFDk-8">
          <mxGeometry relative="1" as="geometry">
            <mxPoint x="80" y="50" as="targetPoint" />
          </mxGeometry>
        </mxCell>
        <mxCell id="sYgXYXVd1xDT1tKqQFDk-8" value="Onboaring service" style="whiteSpace=wrap;html=1;aspect=fixed;" vertex="1" parent="1">
          <mxGeometry x="-60" y="10" width="80" height="80" as="geometry" />
        </mxCell>
        <mxCell id="sYgXYXVd1xDT1tKqQFDk-9" value="" style="swimlane;startSize=0;" vertex="1" parent="1">
          <mxGeometry x="-270" y="180" width="200" height="420" as="geometry" />
        </mxCell>
        <mxCell id="sYgXYXVd1xDT1tKqQFDk-19" value="" style="edgeStyle=orthogonalEdgeStyle;rounded=0;orthogonalLoop=1;jettySize=auto;html=1;" edge="1" parent="sYgXYXVd1xDT1tKqQFDk-9" source="sYgXYXVd1xDT1tKqQFDk-10" target="sYgXYXVd1xDT1tKqQFDk-12">
          <mxGeometry relative="1" as="geometry" />
        </mxCell>
        <mxCell id="sYgXYXVd1xDT1tKqQFDk-10" value="Chunk Maker" style="whiteSpace=wrap;html=1;" vertex="1" parent="sYgXYXVd1xDT1tKqQFDk-9">
          <mxGeometry x="30" y="20" width="120" height="30" as="geometry" />
        </mxCell>
        <mxCell id="sYgXYXVd1xDT1tKqQFDk-22" value="" style="edgeStyle=orthogonalEdgeStyle;rounded=0;orthogonalLoop=1;jettySize=auto;html=1;" edge="1" parent="sYgXYXVd1xDT1tKqQFDk-9" source="sYgXYXVd1xDT1tKqQFDk-14" target="sYgXYXVd1xDT1tKqQFDk-11">
          <mxGeometry relative="1" as="geometry" />
        </mxCell>
        <mxCell id="sYgXYXVd1xDT1tKqQFDk-14" value="Transcoders (Different formats)" style="whiteSpace=wrap;html=1;" vertex="1" parent="sYgXYXVd1xDT1tKqQFDk-9">
          <mxGeometry x="30" y="220" width="120" height="30" as="geometry" />
        </mxCell>
        <mxCell id="sYgXYXVd1xDT1tKqQFDk-21" value="" style="edgeStyle=orthogonalEdgeStyle;rounded=0;orthogonalLoop=1;jettySize=auto;html=1;entryX=0.5;entryY=0;entryDx=0;entryDy=0;" edge="1" parent="sYgXYXVd1xDT1tKqQFDk-9" source="sYgXYXVd1xDT1tKqQFDk-13" target="sYgXYXVd1xDT1tKqQFDk-14">
          <mxGeometry relative="1" as="geometry" />
        </mxCell>
        <mxCell id="sYgXYXVd1xDT1tKqQFDk-13" value="Content tagging(classifiers, thubanail)" style="whiteSpace=wrap;html=1;" vertex="1" parent="sYgXYXVd1xDT1tKqQFDk-9">
          <mxGeometry x="30" y="140" width="120" height="30" as="geometry" />
        </mxCell>
        <mxCell id="sYgXYXVd1xDT1tKqQFDk-17" value="" style="edgeStyle=orthogonalEdgeStyle;rounded=0;orthogonalLoop=1;jettySize=auto;html=1;" edge="1" parent="sYgXYXVd1xDT1tKqQFDk-9" source="sYgXYXVd1xDT1tKqQFDk-12" target="sYgXYXVd1xDT1tKqQFDk-13">
          <mxGeometry relative="1" as="geometry" />
        </mxCell>
        <mxCell id="sYgXYXVd1xDT1tKqQFDk-12" value="Conten FIlter (Nudity, Legal etc)" style="whiteSpace=wrap;html=1;" vertex="1" parent="sYgXYXVd1xDT1tKqQFDk-9">
          <mxGeometry x="30" y="80" width="120" height="30" as="geometry" />
        </mxCell>
        <mxCell id="sYgXYXVd1xDT1tKqQFDk-25" value="" style="edgeStyle=orthogonalEdgeStyle;rounded=0;orthogonalLoop=1;jettySize=auto;html=1;" edge="1" parent="sYgXYXVd1xDT1tKqQFDk-9" source="sYgXYXVd1xDT1tKqQFDk-11" target="sYgXYXVd1xDT1tKqQFDk-24">
          <mxGeometry relative="1" as="geometry" />
        </mxCell>
        <mxCell id="sYgXYXVd1xDT1tKqQFDk-11" value="Quality Converter (various Bandwidth)" style="whiteSpace=wrap;html=1;" vertex="1" parent="sYgXYXVd1xDT1tKqQFDk-9">
          <mxGeometry x="30" y="280" width="120" height="30" as="geometry" />
        </mxCell>
        <mxCell id="sYgXYXVd1xDT1tKqQFDk-24" value="CDN Uploader" style="whiteSpace=wrap;html=1;" vertex="1" parent="sYgXYXVd1xDT1tKqQFDk-9">
          <mxGeometry x="30" y="360" width="120" height="30" as="geometry" />
        </mxCell>
        <mxCell id="sYgXYXVd1xDT1tKqQFDk-23" value="Content Processor" style="rounded=1;whiteSpace=wrap;html=1;" vertex="1" parent="1">
          <mxGeometry x="-240" y="160" width="120" height="20" as="geometry" />
        </mxCell>
        <mxCell id="sYgXYXVd1xDT1tKqQFDk-28" value="Cassandra" style="shape=cylinder3;whiteSpace=wrap;html=1;boundedLbl=1;backgroundOutline=1;size=15;" vertex="1" parent="1">
          <mxGeometry x="80" width="60" height="80" as="geometry" />
        </mxCell>
        <mxCell id="sYgXYXVd1xDT1tKqQFDk-29" value="Amazon S3" style="whiteSpace=wrap;html=1;aspect=fixed;" vertex="1" parent="1">
          <mxGeometry x="330" y="40" width="80" height="80" as="geometry" />
        </mxCell>
        <mxCell id="sYgXYXVd1xDT1tKqQFDk-33" value="Kafka" style="rounded=1;whiteSpace=wrap;html=1;rotation=89;" vertex="1" parent="1">
          <mxGeometry x="166.23" y="315.24" width="410.52" height="60" as="geometry" />
        </mxCell>
        <mxCell id="sYgXYXVd1xDT1tKqQFDk-34" value="" style="edgeStyle=orthogonalEdgeStyle;rounded=0;orthogonalLoop=1;jettySize=auto;html=1;entryX=0.291;entryY=1.033;entryDx=0;entryDy=0;entryPerimeter=0;exitX=0.408;exitY=1.033;exitDx=0;exitDy=0;exitPerimeter=0;" edge="1" parent="1" source="sYgXYXVd1xDT1tKqQFDk-1" target="sYgXYXVd1xDT1tKqQFDk-33">
          <mxGeometry relative="1" as="geometry">
            <mxPoint x="-240" y="90" as="sourcePoint" />
            <mxPoint x="288" y="68" as="targetPoint" />
            <Array as="points">
              <mxPoint x="-240" y="82" />
              <mxPoint x="-240" y="130" />
              <mxPoint x="288" y="130" />
              <mxPoint x="288" y="260" />
            </Array>
          </mxGeometry>
        </mxCell>
        <mxCell id="sYgXYXVd1xDT1tKqQFDk-35" value="Spark streaming" style="whiteSpace=wrap;html=1;aspect=fixed;" vertex="1" parent="1">
          <mxGeometry x="110" y="305.24" width="80" height="80" as="geometry" />
        </mxCell>
        <mxCell id="sYgXYXVd1xDT1tKqQFDk-36" value="" style="endArrow=classic;html=1;rounded=0;entryX=0.462;entryY=0.954;entryDx=0;entryDy=0;entryPerimeter=0;" edge="1" parent="1" target="sYgXYXVd1xDT1tKqQFDk-33">
          <mxGeometry width="50" height="50" relative="1" as="geometry">
            <mxPoint x="190" y="330" as="sourcePoint" />
            <mxPoint x="240" y="280" as="targetPoint" />
          </mxGeometry>
        </mxCell>
        <mxCell id="sYgXYXVd1xDT1tKqQFDk-37" value="" style="endArrow=classic;html=1;rounded=0;entryX=1.013;entryY=0.659;entryDx=0;entryDy=0;entryPerimeter=0;" edge="1" parent="1" target="sYgXYXVd1xDT1tKqQFDk-35">
          <mxGeometry width="50" height="50" relative="1" as="geometry">
            <mxPoint x="340" y="360" as="sourcePoint" />
            <mxPoint x="494" y="370" as="targetPoint" />
          </mxGeometry>
        </mxCell>
        <mxCell id="sYgXYXVd1xDT1tKqQFDk-38" value="CDN" style="whiteSpace=wrap;html=1;aspect=fixed;" vertex="1" parent="1">
          <mxGeometry y="540" width="60" height="60" as="geometry" />
        </mxCell>
        <mxCell id="sYgXYXVd1xDT1tKqQFDk-39" value="" style="endArrow=classic;html=1;rounded=0;entryX=0;entryY=0.5;entryDx=0;entryDy=0;" edge="1" parent="1" target="sYgXYXVd1xDT1tKqQFDk-38">
          <mxGeometry width="50" height="50" relative="1" as="geometry">
            <mxPoint x="-70" y="570" as="sourcePoint" />
            <mxPoint x="-20" y="520" as="targetPoint" />
          </mxGeometry>
        </mxCell>
        <mxCell id="sYgXYXVd1xDT1tKqQFDk-40" value="Notification Service" style="rounded=0;whiteSpace=wrap;html=1;" vertex="1" parent="1">
          <mxGeometry x="330" y="590" width="120" height="60" as="geometry" />
        </mxCell>
        <mxCell id="sYgXYXVd1xDT1tKqQFDk-43" value="" style="endArrow=classic;html=1;rounded=0;entryX=0.333;entryY=-0.033;entryDx=0;entryDy=0;entryPerimeter=0;" edge="1" parent="1" target="sYgXYXVd1xDT1tKqQFDk-40">
          <mxGeometry width="50" height="50" relative="1" as="geometry">
            <mxPoint x="370" y="550" as="sourcePoint" />
            <mxPoint x="420" y="500" as="targetPoint" />
          </mxGeometry>
        </mxCell>
        <mxCell id="sYgXYXVd1xDT1tKqQFDk-45" value="Asset Service" style="rounded=0;whiteSpace=wrap;html=1;" vertex="1" parent="1">
          <mxGeometry x="60" y="170" width="120" height="60" as="geometry" />
        </mxCell>
        <mxCell id="sYgXYXVd1xDT1tKqQFDk-46" value="" style="endArrow=classic;html=1;rounded=0;entryX=0.283;entryY=1.013;entryDx=0;entryDy=0;entryPerimeter=0;" edge="1" parent="1" target="sYgXYXVd1xDT1tKqQFDk-28">
          <mxGeometry width="50" height="50" relative="1" as="geometry">
            <mxPoint x="95" y="170" as="sourcePoint" />
            <mxPoint x="145" y="120" as="targetPoint" />
          </mxGeometry>
        </mxCell>
        <mxCell id="sYgXYXVd1xDT1tKqQFDk-47" value="" style="endArrow=classic;html=1;rounded=0;exitX=0.65;exitY=1.038;exitDx=0;exitDy=0;exitPerimeter=0;" edge="1" parent="1" source="sYgXYXVd1xDT1tKqQFDk-28" target="sYgXYXVd1xDT1tKqQFDk-45">
          <mxGeometry width="50" height="50" relative="1" as="geometry">
            <mxPoint x="250" y="189" as="sourcePoint" />
            <mxPoint x="252" y="100" as="targetPoint" />
          </mxGeometry>
        </mxCell>
        <mxCell id="sYgXYXVd1xDT1tKqQFDk-48" value="" style="endArrow=classic;html=1;rounded=0;entryX=1;entryY=0.75;entryDx=0;entryDy=0;" edge="1" parent="1" target="sYgXYXVd1xDT1tKqQFDk-45">
          <mxGeometry width="50" height="50" relative="1" as="geometry">
            <mxPoint x="340" y="220" as="sourcePoint" />
            <mxPoint x="390" y="170" as="targetPoint" />
          </mxGeometry>
        </mxCell>
        <mxCell id="sYgXYXVd1xDT1tKqQFDk-49" value="" style="endArrow=classic;html=1;rounded=0;" edge="1" parent="1" target="sYgXYXVd1xDT1tKqQFDk-50">
          <mxGeometry width="50" height="50" relative="1" as="geometry">
            <mxPoint x="400" y="305.24" as="sourcePoint" />
            <mxPoint x="480" y="305" as="targetPoint" />
          </mxGeometry>
        </mxCell>
        <mxCell id="sYgXYXVd1xDT1tKqQFDk-50" value="Search COnsumer" style="rounded=0;whiteSpace=wrap;html=1;" vertex="1" parent="1">
          <mxGeometry x="500" y="275" width="120" height="60" as="geometry" />
        </mxCell>
      </root>
    </mxGraphModel>
  </diagram>
</mxfile>
